<svg xmlns="http://www.w3.org/2000/svg" version="1.1" xmlns:xlink="http://www.w3.org/1999/xlink" xmlns:svgjs="http://svgjs.com/svgjs" width="540" height="450" preserveAspectRatio="none" viewBox="0 0 540 450"><g mask="url(&quot;#SvgjsMask1028&quot;)" fill="none"><rect width="540" height="450" x="0" y="0" fill="rgba(6, 37, 69, 1)"></rect><path d="M0 -75L64.95 -37.5L64.95 37.5L0 75L-64.95 37.5L-64.95 -37.5zM64.95 37.5L129.91 75L129.91 150L64.95 187.5L0 150L0 75zM0 150L64.95 187.5L64.95 262.5L0 300L-64.95 262.5L-64.95 187.5zM64.95 262.5L129.91 300L129.91 375L64.95 412.5L0 375L0 300zM0 375L64.95 412.5L64.95 487.5L0 525L-64.95 487.5L-64.95 412.5zM129.91 -75L194.86 -37.5L194.86 37.5L129.91 75L64.95 37.5L64.95 -37.5zM194.86 37.5L259.81 75L259.81 150L194.86 187.5L129.91 150L129.91 75zM129.91 150L194.86 187.5L194.86 262.5L129.91 300L64.95 262.5L64.95 187.5zM194.86 262.5L259.81 300L259.81 375L194.86 412.5L129.91 375L129.91 300zM129.91 375L194.86 412.5L194.86 487.5L129.91 525L64.95 487.5L64.95 412.5zM259.81 -75L324.77 -37.5L324.77 37.5L259.81 75L194.86 37.5L194.86 -37.5zM324.77 37.5L389.72 75L389.72 150L324.77 187.5L259.81 150L259.81 75zM259.81 150L324.77 187.5L324.77 262.5L259.81 300L194.86 262.5L194.86 187.5zM324.77 262.5L389.72 300L389.72 375L324.77 412.5L259.81 375L259.81 300zM259.81 375L324.77 412.5L324.77 487.5L259.81 525L194.86 487.5L194.86 412.5zM389.72 -75L454.68 -37.5L454.68 37.5L389.72 75L324.77 37.5L324.77 -37.5zM454.68 37.5L519.63 75L519.63 150L454.68 187.5L389.72 150L389.72 75zM389.72 150L454.68 187.5L454.68 262.5L389.72 300L324.77 262.5L324.77 187.5zM454.68 262.5L519.63 300L519.63 375L454.68 412.5L389.72 375L389.72 300zM389.72 375L454.68 412.5L454.68 487.5L389.72 525L324.77 487.5L324.77 412.5zM519.63 -75L584.58 -37.5L584.58 37.5L519.63 75L454.68 37.5L454.68 -37.5zM584.58 37.5L649.54 75L649.54 150L584.58 187.5L519.63 150L519.63 75zM519.63 150L584.58 187.5L584.58 262.5L519.63 300L454.68 262.5L454.68 187.5zM584.58 262.5L649.54 300L649.54 375L584.58 412.5L519.63 375L519.63 300zM519.63 375L584.58 412.5L584.58 487.5L519.63 525L454.68 487.5L454.68 412.5z" stroke="rgba(16, 54, 93, 1)" stroke-width="2"></path><path d="M-7.5 -75 a7.5 7.5 0 1 0 15 0 a7.5 7.5 0 1 0 -15 0zM57.45 -37.5 a7.5 7.5 0 1 0 15 0 a7.5 7.5 0 1 0 -15 0zM57.45 37.5 a7.5 7.5 0 1 0 15 0 a7.5 7.5 0 1 0 -15 0zM-7.5 75 a7.5 7.5 0 1 0 15 0 a7.5 7.5 0 1 0 -15 0zM-72.45 37.5 a7.5 7.5 0 1 0 15 0 a7.5 7.5 0 1 0 -15 0zM-72.45 -37.5 a7.5 7.5 0 1 0 15 0 a7.5 7.5 0 1 0 -15 0zM122.41 75 a7.5 7.5 0 1 0 15 0 a7.5 7.5 0 1 0 -15 0zM122.41 150 a7.5 7.5 0 1 0 15 0 a7.5 7.5 0 1 0 -15 0zM57.45 187.5 a7.5 7.5 0 1 0 15 0 a7.5 7.5 0 1 0 -15 0zM-7.5 150 a7.5 7.5 0 1 0 15 0 a7.5 7.5 0 1 0 -15 0zM57.45 262.5 a7.5 7.5 0 1 0 15 0 a7.5 7.5 0 1 0 -15 0zM-7.5 300 a7.5 7.5 0 1 0 15 0 a7.5 7.5 0 1 0 -15 0zM-72.45 262.5 a7.5 7.5 0 1 0 15 0 a7.5 7.5 0 1 0 -15 0zM-72.45 187.5 a7.5 7.5 0 1 0 15 0 a7.5 7.5 0 1 0 -15 0zM122.41 300 a7.5 7.5 0 1 0 15 0 a7.5 7.5 0 1 0 -15 0zM122.41 375 a7.5 7.5 0 1 0 15 0 a7.5 7.5 0 1 0 -15 0zM57.45 412.5 a7.5 7.5 0 1 0 15 0 a7.5 7.5 0 1 0 -15 0zM-7.5 375 a7.5 7.5 0 1 0 15 0 a7.5 7.5 0 1 0 -15 0zM57.45 487.5 a7.5 7.5 0 1 0 15 0 a7.5 7.5 0 1 0 -15 0zM-7.5 525 a7.5 7.5 0 1 0 15 0 a7.5 7.5 0 1 0 -15 0zM-72.45 487.5 a7.5 7.5 0 1 0 15 0 a7.5 7.5 0 1 0 -15 0zM-72.45 412.5 a7.5 7.5 0 1 0 15 0 a7.5 7.5 0 1 0 -15 0zM122.41 -75 a7.5 7.5 0 1 0 15 0 a7.5 7.5 0 1 0 -15 0zM187.36 -37.5 a7.5 7.5 0 1 0 15 0 a7.5 7.5 0 1 0 -15 0zM187.36 37.5 a7.5 7.5 0 1 0 15 0 a7.5 7.5 0 1 0 -15 0zM252.31 75 a7.5 7.5 0 1 0 15 0 a7.5 7.5 0 1 0 -15 0zM252.31 150 a7.5 7.5 0 1 0 15 0 a7.5 7.5 0 1 0 -15 0zM187.36 187.5 a7.5 7.5 0 1 0 15 0 a7.5 7.5 0 1 0 -15 0zM187.36 262.5 a7.5 7.5 0 1 0 15 0 a7.5 7.5 0 1 0 -15 0zM252.31 300 a7.5 7.5 0 1 0 15 0 a7.5 7.5 0 1 0 -15 0zM252.31 375 a7.5 7.5 0 1 0 15 0 a7.5 7.5 0 1 0 -15 0zM187.36 412.5 a7.5 7.5 0 1 0 15 0 a7.5 7.5 0 1 0 -15 0zM187.36 487.5 a7.5 7.5 0 1 0 15 0 a7.5 7.5 0 1 0 -15 0zM122.41 525 a7.5 7.5 0 1 0 15 0 a7.5 7.5 0 1 0 -15 0zM252.31 -75 a7.5 7.5 0 1 0 15 0 a7.5 7.5 0 1 0 -15 0zM317.27 -37.5 a7.5 7.5 0 1 0 15 0 a7.5 7.5 0 1 0 -15 0zM317.27 37.5 a7.5 7.5 0 1 0 15 0 a7.5 7.5 0 1 0 -15 0zM382.22 75 a7.5 7.5 0 1 0 15 0 a7.5 7.5 0 1 0 -15 0zM382.22 150 a7.5 7.5 0 1 0 15 0 a7.5 7.5 0 1 0 -15 0zM317.27 187.5 a7.5 7.5 0 1 0 15 0 a7.5 7.5 0 1 0 -15 0zM317.27 262.5 a7.5 7.5 0 1 0 15 0 a7.5 7.5 0 1 0 -15 0zM382.22 300 a7.5 7.5 0 1 0 15 0 a7.5 7.5 0 1 0 -15 0zM382.22 375 a7.5 7.5 0 1 0 15 0 a7.5 7.5 0 1 0 -15 0zM317.27 412.5 a7.5 7.5 0 1 0 15 0 a7.5 7.5 0 1 0 -15 0zM317.27 487.5 a7.5 7.5 0 1 0 15 0 a7.5 7.5 0 1 0 -15 0zM252.31 525 a7.5 7.5 0 1 0 15 0 a7.5 7.5 0 1 0 -15 0zM382.22 -75 a7.5 7.5 0 1 0 15 0 a7.5 7.5 0 1 0 -15 0zM447.18 -37.5 a7.5 7.5 0 1 0 15 0 a7.5 7.5 0 1 0 -15 0zM447.18 37.5 a7.5 7.5 0 1 0 15 0 a7.5 7.5 0 1 0 -15 0zM512.13 75 a7.5 7.5 0 1 0 15 0 a7.5 7.5 0 1 0 -15 0zM512.13 150 a7.5 7.5 0 1 0 15 0 a7.5 7.5 0 1 0 -15 0zM447.18 187.5 a7.5 7.5 0 1 0 15 0 a7.5 7.5 0 1 0 -15 0zM447.18 262.5 a7.5 7.5 0 1 0 15 0 a7.5 7.5 0 1 0 -15 0zM512.13 300 a7.5 7.5 0 1 0 15 0 a7.5 7.5 0 1 0 -15 0zM512.13 375 a7.5 7.5 0 1 0 15 0 a7.5 7.5 0 1 0 -15 0zM447.18 412.5 a7.5 7.5 0 1 0 15 0 a7.5 7.5 0 1 0 -15 0zM447.18 487.5 a7.5 7.5 0 1 0 15 0 a7.5 7.5 0 1 0 -15 0zM382.22 525 a7.5 7.5 0 1 0 15 0 a7.5 7.5 0 1 0 -15 0zM512.13 -75 a7.5 7.5 0 1 0 15 0 a7.5 7.5 0 1 0 -15 0zM577.08 -37.5 a7.5 7.5 0 1 0 15 0 a7.5 7.5 0 1 0 -15 0zM577.08 37.5 a7.5 7.5 0 1 0 15 0 a7.5 7.5 0 1 0 -15 0zM642.04 75 a7.5 7.5 0 1 0 15 0 a7.5 7.5 0 1 0 -15 0zM642.04 150 a7.5 7.5 0 1 0 15 0 a7.5 7.5 0 1 0 -15 0zM577.08 187.5 a7.5 7.5 0 1 0 15 0 a7.5 7.5 0 1 0 -15 0zM577.08 262.5 a7.5 7.5 0 1 0 15 0 a7.5 7.5 0 1 0 -15 0zM642.04 300 a7.5 7.5 0 1 0 15 0 a7.5 7.5 0 1 0 -15 0zM642.04 375 a7.5 7.5 0 1 0 15 0 a7.5 7.5 0 1 0 -15 0zM577.08 412.5 a7.5 7.5 0 1 0 15 0 a7.5 7.5 0 1 0 -15 0zM577.08 487.5 a7.5 7.5 0 1 0 15 0 a7.5 7.5 0 1 0 -15 0zM512.13 525 a7.5 7.5 0 1 0 15 0 a7.5 7.5 0 1 0 -15 0z" fill="rgba(16, 54, 93, 1)"></path><path d="M18.15 -25.62L61.45 -0.62L61.45 49.38L18.15 74.38L-25.15 49.38L-25.15 -0.62zM61.45 49.38L104.75 74.38L104.75 124.38L61.45 149.38L18.15 124.38L18.15 74.38zM18.15 124.38L61.45 149.38L61.45 199.38L18.15 224.38L-25.15 199.38L-25.15 149.38zM61.45 199.38L104.75 224.38L104.75 274.38L61.45 299.38L18.15 274.38L18.15 224.38zM148.06 49.38L191.36 74.38L191.36 124.38L148.06 149.38L104.75 124.38L104.75 74.38zM104.75 424.38L148.06 449.38L148.06 499.38L104.75 524.38L61.45 499.38L61.45 449.38zM191.36 274.38L234.66 299.38L234.66 349.38L191.36 374.38L148.06 349.38L148.06 299.38zM191.36 424.38L234.66 449.38L234.66 499.38L191.36 524.38L148.06 499.38L148.06 449.38zM277.96 124.38L321.27 149.38L321.27 199.38L277.96 224.38L234.66 199.38L234.66 149.38zM321.27 349.38L364.57 374.38L364.57 424.38L321.27 449.38L277.96 424.38L277.96 374.38zM407.87 49.38L451.18 74.38L451.18 124.38L407.87 149.38L364.57 124.38L364.57 74.38zM364.57 124.38L407.87 149.38L407.87 199.38L364.57 224.38L321.27 199.38L321.27 149.38zM364.57 274.38L407.87 299.38L407.87 349.38L364.57 374.38L321.27 349.38L321.27 299.38zM451.18 -25.62L494.48 -0.62L494.48 49.38L451.18 74.38L407.87 49.38L407.87 -0.62zM494.48 199.38L537.78 224.38L537.78 274.38L494.48 299.38L451.18 274.38L451.18 224.38zM451.18 274.38L494.48 299.38L494.48 349.38L451.18 374.38L407.87 349.38L407.87 299.38zM494.48 349.38L537.78 374.38L537.78 424.38L494.48 449.38L451.18 424.38L451.18 374.38zM537.78 -25.62L581.08 -0.62L581.08 49.38L537.78 74.38L494.48 49.38L494.48 -0.62zM537.78 124.38L581.08 149.38L581.08 199.38L537.78 224.38L494.48 199.38L494.48 149.38z" stroke="rgba(57, 103, 151, 0.93)" stroke-width="2"></path></g><defs><mask id="SvgjsMask1028"><rect width="540" height="450" fill="#ffffff"></rect></mask></defs></svg>